<svg xmlns="http://www.w3.org/2000/svg" viewBox="0 0 24 24"><title>hardisk</title><g id="hardisk"><path d="M18,0H6A4,4,0,0,0,2,4V20a4,4,0,0,0,4,4H18a4,4,0,0,0,4-4V4A4,4,0,0,0,18,0ZM16,2V14a4,4,0,0,1-8,0V10.41C8.6,9.82,9,9.54,9,9c0-4.93.26-4.15-1-5.41V2Zm4,18a2,2,0,0,1-2,2H6a2,2,0,0,1-2-2V4A2,2,0,0,1,6,2c0,2.73-.21,2.2,1,3.41V8.59C5.75,9.84,6,9,6,14a6,6,0,0,0,12,0V2a2,2,0,0,1,2,2Z"/><path d="M12,17a3,3,0,1,0-3-3A3,3,0,0,0,12,17Zm0-4a1,1,0,0,1,0,2A1,1,0,0,1,12,13Z"/><path d="M6,19a1,1,0,0,0,0,2A1,1,0,0,0,6,19Z"/><path d="M18,19a1,1,0,0,0,0,2A1,1,0,0,0,18,19Z"/><path d="M12,6h2a1,1,0,0,0,0-2H12A1,1,0,0,0,12,6Z"/></g></svg>