<?xml version="1.0" encoding="utf-8"?>
<!-- Generator: Adobe Illustrator 24.3.0, SVG Export Plug-In . SVG Version: 6.00 Build 0)  -->
<svg version="1.1" id="Layer_1" xmlns="http://www.w3.org/2000/svg" xmlns:xlink="http://www.w3.org/1999/xlink" x="0px" y="0px"
	 viewBox="0 0 120 120" enable-background="new 0 0 120 120" xml:space="preserve">
<path fill="#FBCF26" d="M78.71,37.269H40.796v20.543H78.71V37.269z M38.25,77.85l1.196-5.688H79.83l1.199,5.688H38.25z"/>
<path fill="#1A2559" d="M87.579,65.169v-36.69h-56.03v36.69l-5.871,25.434H93.45L87.579,65.169z M34.549,31.48h50.027v32.352H34.549
	V31.48z M34.241,66.833h50.644l4.792,20.77H29.448L34.241,66.833z M37.796,60.813H81.71V34.269H37.796V60.813z M40.796,37.269H78.71
	v20.543H40.796V37.269z M65.011,82.613H39.069c-0.83,0-1.5,0.67-1.5,1.5c0,0.828,0.67,1.5,1.5,1.5h25.942
	c0.827,0,1.499-0.672,1.499-1.5C66.51,83.283,65.838,82.613,65.011,82.613z M79.639,82.613h-7.77c-0.829,0-1.501,0.67-1.501,1.5
	c0,0.828,0.672,1.5,1.501,1.5h7.77c0.828,0,1.5-0.672,1.5-1.5C81.139,83.283,80.467,82.613,79.639,82.613z M82.265,69.165H37.011
	L34.55,80.851h50.178l-0.382-1.811L82.265,69.165z M38.25,77.85l1.196-5.688H79.83l1.199,5.688H38.25z"/>
</svg>
