<svg xmlns="http://www.w3.org/2000/svg" width="128" height="128" viewBox="0 0 128 128">
  <title>Layers</title>
  <path d="M5.229,47.062l18.014,8.849L8.229,63.286a1.749,1.749,0,0,0,0,3.141L29.5,76.878,13.229,84.87a1.749,1.749,0,0,0,0,3.141l50,24.56a1.75,1.75,0,0,0,1.542,0l50-24.56a1.749,1.749,0,0,0,0-3.141L98.5,76.878l21.275-10.451a1.749,1.749,0,0,0,0-3.141l-15.014-7.375,18.014-8.849a1.75,1.75,0,0,0,0-3.142l-58-28.491a1.748,1.748,0,0,0-1.542,0l-58,28.491a1.75,1.75,0,0,0,0,3.142Zm104.8,39.379L64,109.05,17.97,86.441l15.5-7.613L63.229,93.443a1.75,1.75,0,0,0,1.542,0L94.526,78.828Zm5-21.585L64,89.922,12.97,64.856l14.242-6.995L63.229,75.553a1.75,1.75,0,0,0,1.542,0l36.017-17.692ZM64,18.95l54.031,26.541L64,72.033,9.969,45.491Z"/>
</svg>
