<?xml version="1.0" encoding="iso-8859-1"?>
<!-- Generator: Adobe Illustrator 22.0.1, SVG Export Plug-In . SVG Version: 6.00 Build 0)  -->
<svg version="1.1" id="Layer_1" xmlns="http://www.w3.org/2000/svg" xmlns:xlink="http://www.w3.org/1999/xlink" x="0px" y="0px"
	 viewBox="0 0 2048 2048" style="enable-background:new 0 0 2048 2048;" xml:space="preserve">
<g>
	<g>
		<g>
			<path style="fill:#BBECFF;" d="M576.257,1390.887C399.388,1390.887,256,1247.5,256,1070.617
				c0-88.441,35.854-168.502,93.797-226.459c57.957-57.957,138.032-93.797,226.459-93.797h18.995
				c0-236.797,191.951-428.748,428.748-428.748s428.748,191.951,428.748,428.748h18.995c176.869,0,320.257,143.374,320.257,320.257
				c0,88.441-35.854,168.502-93.797,226.473c-57.957,57.943-138.032,93.797-226.459,93.797H576.257z"/>
		</g>
	</g>
	<g>
		<g>
			<path style="fill:#72B8CE;" d="M1024,1100.875c13.682,0,24.774,11.092,24.774,24.774v575.965
				c0,13.682-11.092,24.774-24.774,24.774c-13.682,0-24.774-11.092-24.774-24.774v-575.965
				C999.226,1111.967,1010.318,1100.875,1024,1100.875z"/>
		</g>
		<g>
			<path style="fill:#72B8CE;" d="M1024,1100.875c6.571,0,12.872,2.61,17.518,7.256l135.206,135.207
				c9.675,9.675,9.675,25.361,0,35.036c-9.675,9.674-25.36,9.674-35.036,0L1024,1160.685l-117.688,117.689
				c-9.675,9.675-25.361,9.675-35.036,0c-9.674-9.675-9.674-25.361,0-35.036l135.207-135.207
				C1011.128,1103.485,1017.43,1100.875,1024,1100.875z"/>
		</g>
	</g>
</g>
</svg>
